<svg width="9" height="15" viewBox="0 0 9 15" fill="none" xmlns="http://www.w3.org/2000/svg">
<path opacity="0.447498" d="M3.02946 7.50317L8.74154 1.89146C8.89882 1.73732 8.98535 1.53122 8.98535 1.31146C8.98535 1.09159 8.89882 0.88561 8.74154 0.73122L8.24102 0.239756C8.08398 0.0851219 7.87406 0 7.65037 0C7.42667 0 7.217 0.0851219 7.05984 0.239756L0.258699 6.92098C0.100919 7.07585 0.0145194 7.2828 0.01514 7.5028C0.0145194 7.72378 0.100795 7.93049 0.258699 8.08549L7.05351 14.7602C7.21067 14.9149 7.42034 15 7.64416 15C7.86786 15 8.07753 14.9149 8.23481 14.7602L8.73521 14.2688C9.06082 13.9489 9.06082 13.4282 8.73521 13.1084L3.02946 7.50317Z" fill="white"/>
</svg>
